<?xml version="1.0" standalone="no"?><!DOCTYPE svg PUBLIC "-//W3C//DTD SVG 1.1//EN" "http://www.w3.org/Graphics/SVG/1.1/DTD/svg11.dtd"><svg t="1661482440264" class="icon" viewBox="0 0 1024 1024" version="1.1" xmlns="http://www.w3.org/2000/svg" p-id="2686" data-spm-anchor-id="a313x.7781069.0.i7" xmlns:xlink="http://www.w3.org/1999/xlink" width="128" height="128"><defs><style type="text/css">@font-face { font-family: element-icons; src: url("chrome-extension://moombeodfomdpjnpocobemoiaemednkg/fonts/element-icons.woff") format("woff"), url("chrome-extension://moombeodfomdpjnpocobemoiaemednkg/fonts/element-icons.ttf ") format("truetype"); }
@font-face { font-family: feedback-iconfont; src: url("//at.alicdn.com/t/font_1031158_u69w8yhxdu.woff2?t=1630033759944") format("woff2"), url("//at.alicdn.com/t/font_1031158_u69w8yhxdu.woff?t=1630033759944") format("woff"), url("//at.alicdn.com/t/font_1031158_u69w8yhxdu.ttf?t=1630033759944") format("truetype"); }
</style></defs><path d="M79.4 957.4c3.9-3.1 8-6.1 11.8-9.5 15.5-14.2 30.9-28.5 46.5-42.6 1.4-1.3 4.5-1.9 6.3-1.3 17.4 4.9 31.4-0.5 42.6-13.8 5.2-6.2 6.4-14.1 7-21.9 1.4-17.2-6.7-30.5-19.7-40.2-13.8-10.3-28.9-18.8-43.2-28.5-12.3-8.3-25-16.2-29-32.1-3.9-15.5-5.7-31.2-3.5-47.2 4.3-31.2 18-58.7 33.7-85.2 6.6-11.2 15.7-21 24.5-30.7 9.5-10.5 19.3-20.8 30-29.9 18.8-16 39.5-29.2 63.5-36.4 5-1.5 10.1-3 15.2-4.3 1.6-0.4 3.4-0.1 5.2 0.3-17.4 10.2-33.2 22.2-47.1 36.5-20 20.7-38.4 42.5-53.9 66.9-9 14.2-15.9 29.3-21.7 44.8-3.4 9.1-4.1 19.4-5.8 29.1-0.8 4.7-1.6 9.6-1.7 14.4-0.1 6.3 0 12.6 0.8 18.8 1 9.1 2.5 18 7.6 26.1 4.7 7.4 11.5 11.5 19.3 13.6 25.1 6.7 45.5 20.3 62.4 39.8 10.1 11.6 17.9 24.4 21.3 39.4 6 26.5 3 51.5-15.1 73.1-6.6 7.9-14 15.1-21 22.6-44.2 0-88.5 0-132.7-0.1-1.1 0.1-3.7 1.6-3.3-1.7zM593.1 959.3c-0.3-10.2-0.9-20.4-0.9-30.6-0.1-42.8 0-85.6-0.1-128.4 0-3.2 1.1-5.2 3.3-7.2 14.5-12.9 29.1-25.8 43.5-38.8 1.8-1.7 3.1-2.2 5.2-0.5 7.3 5.9 15 11.3 21.9 17.5 7.5 6.7 14.5 13.9 21.3 21.3 1.9 2 3 5.6 3 8.4 0.3 16.5 0.1 33 0.1 49.5 0.1 20.6 0 41.2 0.5 61.8 0.1 5.2-1.8 8.5-5.4 11.7-8.5 7.4-17 14.9-25.2 22.5-2.6 2.4-4.1 2.8-6.9 0.1-8.8-8.5-17.9-16.7-28-26-0.4 13.6-0.8 26.1-1.2 38.7h-31.1z m35.8-159.6V909h26.6v-5.8c0-15.4-0.1-30.8 0.1-46.2 0.2-17.6 0.6-35.1 0.9-52.7 0.1-3.2-1.5-4.6-4.6-4.6h-23zM870.7 959.3c-10.2-9.8-20.2-19.9-30.8-29.4-5.6-5-9.5-9.7-9.1-18.2 0.8-16.6 0.1-33.3 0.3-50 0.2-19.9 0.5-39.9 1.1-59.8 0.1-2.5 2.2-5.3 4.2-7.2 10.2-10 20.7-19.8 30.9-29.8 8.7-8.5 8.6-8.6 17.3 0.1 10.3 10.2 20.2 20.8 31 30.4 5.2 4.6 6.5 9.3 6.2 15.6-0.3 9.3-0.2 18.6 0 27.8 0.1 3.1-0.6 4.5-4.1 4.4-7.5-0.2-15.1-0.1-23.2-0.1v-39.6c-9.6 0-18.7-0.1-27.8 0.2-0.9 0-2.4 2.5-2.4 3.8-0.2 9.7-0.1 19.5-0.1 29.3 0 24.2 0.1 48.4-0.1 72.7 0 4.1 1.1 5.8 5.3 5.5 8.2-0.6 16.5-1.1 25.1-1.7v-37.8h27.3v19.2c0 2.8-0.5 5.8 0.1 8.5 1.8 8.4-2.9 13.5-8.4 18.7-11.1 10.5-21.9 21.2-32.9 31.7-2 1.9-4 3.8-6 5.8-1.3-0.1-2.6-0.1-3.9-0.1zM520.9 752.7c15.6 13.7 31.1 27.2 46.4 40.8 1.2 1.1 2.1 3.1 2.1 4.7 0.1 35.2 0.1 70.5 0 105.7 0 1.6-0.8 3.7-2 4.9-13 13.5-26 26.8-39.1 40.1-2 2-4.2 3.8-6.4 5.6-5.2 4.3-5.3 4.3-10.2-0.6-12.6-12.6-25.1-25.1-37.6-37.7-1.1-1.2-1.9-3.2-1.9-4.8-0.1-37.3-0.1-74.6 0-111.8 0-1.7 1-4 2.3-5.1 15.4-14.1 30.8-27.9 46.4-41.8z m-15.3 47.7v105.8h28.7V800.4h-28.7zM808.2 841v36h-60.4v37.9h60.7c-10.2 9.2-19.6 17.8-29.1 26.3-5.3 4.8-10.8 9.5-16 14.5-3 2.9-5.2 2.8-8.2 0-12.7-11.7-25.5-23.2-38.4-34.7-2.6-2.3-3.8-4.8-3.8-8.4 0.2-37 0.1-73.9 0-110.9 0-3 0.7-5.2 3-7.4 14.7-13.5 29.2-27.1 43.9-40.7 16.2 15.1 32.4 30.1 48.5 45.1-0.1 0.4-0.1 0.8-0.2 1.2h-60.3V841h60.3zM482.4 483.9c6.8-4.9 13-9.1 18.9-13.8 1.3-1 2-3.5 2-5.3 0.2-9.9-0.1-19.8 0.2-29.7 0.1-2.8 1.2-5.7 2.4-8.3 0.4-0.9 2.7-1.8 3.8-1.5 1.1 0.3 2.4 2.1 2.4 3.3 0.2 4.8-0.1 9.7-0.3 14.6-0.2 5.6-0.8 11.3-0.7 16.9 0 5.2 1.4 6.3 6.6 5.8 3.2-0.3 6.5-1.3 9.7-1.3 4.6 0 9.2 0.2 13.7 0.9 4 0.7 5.3 3.6 4.2 7.6-1.4 5-4.1 8.6-9.3 10.6-4.1 1.6-7.7 4.6-11.3 7.3-2.8 2.1-2.9 4.5-1 7.7 5.1 8.4 5 8.5-4.6 10.2l-0.9 0.3c-10 2.5-10 2.5-10 12.7 0 9.6 0.1 19.2 0 28.8-0.1 6.4-0.7 12.8-0.9 19.2-0.2 5.2 0.2 10.5-0.2 15.7-0.1 1.4-2.3 2.6-3.5 4-1.3-1.3-3.5-2.5-3.7-4-0.5-4-0.2-8.1-0.2-12.2-0.1-15.4-0.2-30.8-0.4-46.2 0-1.6-0.2-3.2 0.1-4.7 0.7-4 0.5-6.4-4.9-6.4-4.4 0-5.8-4.5-3-8.1 1.9-2.4 4.2-4.5 6.5-6.5 5-4.2 4.2-9.6 3.3-16.4-3.7 1.6-7.1 2.6-10 4.2-8.5 4.8-13.5 12.1-15.5 21.6-0.8 3.8-4.8 4.8-7.6 2.1-3.9-3.8-7-6.9-3.7-14.8 2.4-5.7 3.8-11.7 6.1-17.4 0.7-1.8 2.8-3.3 4.4-4.6 3.1-2.4 5-1.8 6.1 1.9 0.7 1.7 0.9 3.5 1.3 5.8z m33.6 0c-0.1-0.7-0.2-1.3-0.3-2-1.8-0.1-4.6-1.1-5.3-0.2-1.5 1.8-1.8 4.4-2.6 6.7 0.7 0.4 1.3 0.8 2 1.2 2.1-1.9 4.1-3.8 6.2-5.7zM665.2 534.4c-15.4 26.7-29.1 55.6-53.5 77-0.7-0.3-1.3-0.7-2-1 0.5-1.7 0.7-3.7 1.7-5.1 10.8-15.6 21.6-31.3 32.5-46.8 8.7-12.4 13.4-26.6 18.8-40.5 3.7-9.3 5.9-19.2 8.7-28.8 1.4-4.9 7.6-9 13.1-8.3 0 0.9 0.3 1.9 0 2.7-2.2 5.7-4.3 11.5-6.8 17.1-1.4 3.2-0.9 5.8 1.1 8.2 1.8 2.1 4.1 1.3 6.3 0.3 0.9-0.4 2.3-0.5 3.2-0.1 8.8 4 16.2 0 23.7-3.9 3.3-1.7 6.5-3.7 10-4.9 1.6-0.5 4.7 0 5.4 1.1 1.1 1.8 1.6 4.8 0.9 6.8-0.8 2.5-3.2 4.5-4.7 6.8-2.1 3.2-4.1 6.4-6.5 10.1 2.7 1.6 4.9 2.7 6.8 4.1 1.3 1 2.3 2.4 3.5 3.6-1.5 1.1-2.9 2.7-4.6 3.4-4.6 1.8-9.3 3.3-14.1 4.7-2.2 0.6-4.6 1.1-6.8 1-4-0.3-5.7-3.9-3.5-7.3 1.6-2.5 3.9-4.5 5.5-7 0.9-1.4 1.7-4.3 1-4.9-1.4-1.3-3.8-2.2-5.7-2.2-3.4 0.1-6.7 1.1-10.1 1.7-4 0.7-5.3 3.2-4.2 6.7 1.5 4.6 1.1 8.5-2.9 11.7-3.9 3-8.3 3.5-12.2 1.3-2.2-1.4-3.1-5-4.6-7.5zM848.3 465.1c-10.1 9-18.3 19.5-30.5 25.6-2 1-4.2 3.6-4.4 5.7-0.8 6.7-1.8 13.7-0.6 20.1 0.6 3.2 5.4 6.2 9 8.1 8.4 4.6 17.7 4.4 26.9 3 10.3-1.6 17.9-8.2 25.7-14.4 3.4-2.7 5.1-6.7 4.3-11.7-0.8-5-0.3-10.1-0.4-15.2v-14.5c0-2.2-0.3-4.5 0.4-6.5 0.5-1.4 2.3-2.5 3.5-3.7 1 1.2 2.6 2.3 2.8 3.6 0.6 3.7 0.8 7.4 0.9 11.1 0.1 6.6 0.3 12.9 4.3 18.8 2.2 3.3 1.8 7.7-1.1 10.8-6.1 6.5-12 13.3-18.9 18.8-11.5 9.2-24.6 14.6-39.8 13.3-7.1-0.6-14.4-0.5-21.3-2-7.8-1.7-10.9-3.3-10.1-14 0.4-5.5 0.1-11 0.1-16.5 0-3.6-1.5-5.5-5.4-5.4-1.4 0.1-2.8-1-4.3-1.5 1.1-1.4 1.9-3.4 3.3-4.2 4.9-2.5 9.3-5.2 10.4-11.2 0.2-1.2 0.5-2.4 0.2-3.5-1.1-5.7 3.2-11.5 9-11.5 1.4 0 3.4 1.4 4.1 2.8 1.7 3.2 3.9 3.5 6.5 1.7 2.6-1.9 5.1-4.1 7.4-6.4 5.8-5.6 11.1-6.2 18-1.2zM594.3 521.2c-2.9 4.7-5.3 8.5-8.5 13.8 3.1-0.4 5.1-1 7.1-0.9 3.1 0.2 6.8-0.2 9 1.4 2.4 1.8 3.5 5.4 1.5 8.9-1.4 2.5-8 5-11 4.5-6.9-1.2-13.8-2.1-20.6-3.3-1.5-0.3-3.9-1.3-3.9-2 0-1.8 0.6-4.1 1.8-5.2 3.6-3.2 8.3-5.3 11.3-8.9 4-4.7 7-10.2 9.8-15.6 0.7-1.4-1.2-4.2-2.9-6.1 0.7-1.7 1.4-3.5 2.2-5.5-5.1 0.4-10.3 6.2-13 14.3 1.8-0.5 3.2-1 4.6-1.2 1.2-0.2 2.4 0.1 3.7 0.2-0.4 1.2-0.4 3-1.2 3.6-4.5 3-9.2 5.7-13.9 8.5-0.7 0.4-1.4 0.8-2.2 0.8-2.6 0-5.2-0.3-7.8-0.4 1-2.3 1.9-4.8 3.2-6.9 1.2-1.8 3-3.1 4.5-4.7 5.1-5.3 5-5.2 1.7-11.9-0.6-1.1-0.6-3.2 0.1-4.1 3.5-4.6 0.7-5.9-3.2-6.8-0.5-0.1-0.9-0.2-1.4-0.3-0.1 0-0.2-0.2-0.3-0.4-0.4-5 4.2-9.3 10.3-9.8 1.5-0.1 3.2 0 4.6-0.5 2.4-0.7 4-2 2.1-4.8-0.6-0.9-1.1-2.1-1-3 0.1-1.3 0.9-2.5 1.4-3.8 1.2 0.6 2.7 0.9 3.5 1.8 2.9 3.2 5.6 6.5 8.1 10 0.7 1 0.6 2.8 0.6 4.3 0.1 3.3-0.1 6.5 0.1 9.8 0 0.8 1.2 2.3 1.7 2.2 0.9 0 1.9-0.9 2.7-1.7 0.6-0.5 0.8-1.5 1.4-1.8 1.9-0.9 3.9-1.6 5.9-2.4-0.3 1.8-0.2 3.8-0.9 5.4-1.9 4-4.4 7.8-6.1 11.9-0.6 1.4-0.1 3.7 0.6 5.3 2.2 4.6 5 9 7.2 13.6 0.6 1.2 0 3 0 4.5-1.8-0.4-4.3-0.2-5.2-1.4-2.7-3.3-4.8-7.1-7.6-11.4z" p-id="2687" data-spm-anchor-id="a313x.7781069.0.i3" class="" fill="#ffffff"></path><path d="M606 542.5c4.2-2 9.2-2.8 10.3-5.3 2.1-4.9 2.4-10.7 2.7-16.2 0.2-3.6-0.9-7.4-1.3-11-1.6-14.2-3.1-28.5-4.8-42.7-0.4-3.5-3.1-5.4-6.6-5.6-8.8-0.5-17.4 0.3-25.5 4.6-2.8 1.5-6.1 2.2-9.3 2.8-1.1 0.2-3.3-0.6-3.6-1.4-0.4-1.2 0.1-3 0.8-4.2 0.6-1 1.9-1.6 3-2.1 7.5-3.3 15-6.7 22.7-9.6 2.6-1 5.7-0.6 8.5-0.5 4.5 0.1 9.1 0.4 13.6 0.7 6.5 0.4 9.8 3.8 10.4 10.2 1.2 14.6 2.5 29.2 3.8 43.8v0.5c5.1 9.2-0.7 17.3-2.7 25.6-1.4 6-3.5 11.9-6 17.4-1 2.1-3.9 3.7-6.3 4.6-3 1.1-5.1-0.5-6.2-3.7-0.9-2.9-2.4-5.6-3.5-7.9zM765 496.2c-3.4 3.7-5.7 6.5-8.2 9-3.9 4-11.1 4.8-15.8 1.9-2.1-1.3-2.6-2.6-0.6-4.3 0.6-0.5 1.2-1.1 1.9-1.4 14.7-6.1 22-19.2 30.1-31.6 2.2-3.4 5.3-6.4 8.4-9.1 2.1-1.7 5.5-2.7 7.3 0.2 1.7 2.6 0 5-2.6 6.6-6.2 4-11.3 9-14.5 15.9-1.3 2.8-0.8 4.7 0.6 7.2 1.8 3.2 3.4 6.9 4 10.5 1 6.5 1.4 13.1 1.6 19.6 0.2 7.7-5.8 13.5-13.6 13.6-0.3 0-0.6 0.1-0.9 0-2.3-0.5-4.7-0.9-7-1.4 1.4-1.5 3.4-2.9 4.2-4.7 2.4-5.4 7.9-9.5 7-16.4-0.4-3.1 0.1-6.3-0.1-9.4-0.1-1.6-0.9-3.2-1.8-6.2zM685.8 474.9c-5.8 0.6-9.1-3.8-12.7-6.9-2.6-2.3 0-4.2 2.6-5.4 6.7-3 13.4-5.3 21-5.1 5.5 0.1 10.9-1.9 16.5-2.4 2.3-0.2 4.7 1.3 7.1 2-0.7 2.1-1 4.4-2.1 6.2-5 8.8-14.2 9-22.6 10.4-3.2 0.7-6.5 0.9-9.8 1.2zM558.6 506.3c-1.1 8.8-2.1 17.6-3.3 26.3-0.1 0.9-0.4 1.9-0.9 2.6-1.9 2.5-3.3 6.7-7.1 5.4-1.5-0.5-2.3-4.7-2.6-7.2-0.6-5.1-0.4-10.1 2.8-14.8 1.5-2.1 1.8-5.3 2-8 0.5-6.4 0.5-12.8 1.2-19.2 0.2-2.2 1.5-4.9 3.1-6.4 2.3-2 3.3 0.1 3.3 2.3 0.1 6.3 0 12.5 0 18.8 0.6 0.1 1 0.1 1.5 0.2z" p-id="2688" data-spm-anchor-id="a313x.7781069.0.i4" class="" fill="#ffffff"></path><path d="M604.4 476.9c-0.4 0.4-1.4 1.5-2.5 2.7-2.6-2.6-5.7-4.9-7.6-8-0.9-1.5 0.7-3.6 3.6-3.4 4.4 0.3 6.6 2.4 6.5 8.7zM269.2 832.5c-9.6-8.1-19.1-15.3-27.7-23.4-14.3-13.6-28.8-27.2-41.7-42.1-11.7-13.5-21.4-28.9-32-43.4-0.5-0.6-0.8-1.4-1.4-1.9-8.3-7.7-8.1-16.7-3.8-26.3 1.1-2.4 1.7-5 2.7-7.4 1.7-4.3 3.5-8.5 5.9-14.2 4.2 5.9 7.9 10.8 11.4 15.9 14.1 20.3 27.2 41.3 42.4 60.8 11 14.1 23 27.8 38.5 37.6 4.2 2.7 7 6.5 6.6 12.3-0.5 8.6-0.1 17.3-0.1 25.9 0 1.9-0.5 3.9-0.8 6.2z" p-id="2689" data-spm-anchor-id="a313x.7781069.0.i5" class="" fill="#ffffff"></path><path d="M934.9 475.2c0.6-35.6-6.3-70-16-104.2-8.2-29-19.3-56.6-34.3-82.7-12.3-21.4-23.7-43.4-40.5-61.9-10.2-11.1-20.1-22.5-30.9-33-12.7-12.3-25.9-24.1-39.5-35.4-21.8-18.2-45.8-33.1-71.1-45.9-23.3-11.8-47.3-21.7-72.8-27.5-23.1-5.2-46.4-9.4-69.6-13.8-6.6-1.2-13.3-1.5-20-2.2h-51c-6 1-12 2-17.9 2.9-8.3 1.3-16.6 2.2-24.9 3.7-13.9 2.7-27.9 5.1-41.5 8.8-11.4 3.1-22.5 7.3-33.4 11.8-16.5 6.9-33 14.1-49.1 22-21.7 10.7-42.5 23.3-60.9 39.3-15.9 13.9-31.9 27.9-47 42.7-8.8 8.6-16 18.9-23.8 28.5-6.3 7.8-13.2 15.2-18.5 23.6-9.4 14.9-18 30.3-26.5 45.8-6.3 11.5-12.9 23-17.2 35.3-8.1 23.3-15.3 47-21.7 70.9-4.8 18.2-8.2 36.9-8.5 55.9-0.2 18.1-1.5 36.2-0.7 54.2 0.8 16.7 2.7 33.4 5.9 49.8 3.6 18.9 9.1 37.4 13.8 56.1 0.2 1 0.8 1.9 1.2 2.6 6.3-7.9 12.5-15.4 18.5-23.2 2.5-3.3 3.1-7.1 2.2-11.5-2.9-14.2-5.6-28.4-7.9-42.7-1.7-10.8-3.3-21.6-4-32.5-0.8-12.1-0.9-24.2-0.4-36.3 0.5-10.8 2.4-21.5 3.3-32.2 2-23 7.8-45.1 14.4-67.1 13.9-46 36.7-87.2 65.5-125.6 15.6-20.8 33.6-39.3 53.4-56.1 9-7.7 18.9-14.4 28-22.1 63.5-53.6 171.5-70.5 177.9-71 17.3-1.3 34.7-3.1 52.1-3.4 14.4-0.3 28.9 0.2 43.2 2.1 15.1 2 30 5.8 44.9 9.1 21.8 4.9 43.1 11.6 63.4 21 31.6 14.6 60.8 33.2 87.9 55.2 21.5 17.4 41.2 36.4 58.5 57.9 17.9 22.4 34.3 45.9 46.6 72 12.4 26.4 22.2 53.7 28.8 82.3 4.9 21.3 9.6 42.7 10.2 64.6 0.4 15.5 0.7 31.1 0 46.6-0.6 14.8-1.6 29.8-3.9 44.4-3.4 21.8-7.8 43.5-16.8 64-7.9 18-14.6 36.6-23.7 54-14.2 26.9-31.9 51.6-52.4 74.2-4.4 4.8-8.6 9.8-12.9 14.6 6.9 6 13.2 11.7 19.8 16.9 1.1 0.9 4 0.7 5.4-0.2 2.6-1.7 4.9-4 6.9-6.3 6.7-7.9 13.5-15.6 19.7-23.9 10-13.4 20.3-26.7 29.1-40.8 12-19.2 21.9-39.4 30-60.7 17.3-45 29.3-90.8 29-139.3 0-1.5 0.7-2.9 1-4.4v-22.7c-0.6-1.3-1.3-2.8-1.3-4.2z" fill="#ffffff" p-id="2690" data-spm-anchor-id="a313x.7781069.0.i1" class=""></path><path d="M417.1 113.7v335.6h-1.2c-11.1-107.9-22.2-215.8-33.3-324.2-2.2 0.6-3.5 0.9-4.8 1.3v-0.1c-29.7 11-61.4 26.2-86.3 47.2 0.5-0.4 1-0.6 2.1-1.2 0.1 1.9 0.3 3.4 0.3 4.9 0 99.9 0.1 199.8 0 299.8-0.2 147.4-0.6 294.8-0.9 442.2 0 13.3 0.6 26.7 0.9 40H326c0.3-2.3 0.9-4.5 0.9-6.8 0-138 0-276 0.1-414 0-55.9 0.2-111.7 0.3-167.6l0.6-212.4c0-2.4-0.7-4.8-1.2-7.8 7.6-4 15.7-8.2 23.5-12.3-0.4 3.6-0.9 6.9-0.9 10.2-0.1 64.8-0.1 129.7 0 194.5 0.1 203.6 0.2 407.2 0.4 610.8 0 1.8 0.6 3.6 0.9 5.4h33.1l1.5-318.4c0.1 0 0.3 0 0.4-0.1 0.9 8 1.9 16 2.8 24 1.2 11.3 2.4 22.7 3.6 34 1 10.3 2 20.5 3 30.8 1.1 10.7 2.4 21.4 3.5 32.1 1.1 10.3 2 20.5 3.1 30.8 1.1 11 2.4 22 3.5 33.1 1.1 10.3 2 20.5 3.1 30.8 1.1 10.9 2.4 21.7 3.5 32.6 1.1 10.2 2 20.5 3.1 30.7 1.2 11 2.4 22 3.5 33 0.2 2.2 0.2 4.4 0.2 6.6h31.2c0.1-3.9 0.4-7.8 0.4-11.7V119v-13.2c-9 1.9-20.2 4.4-33 7.9z" p-id="2691" data-spm-anchor-id="a313x.7781069.0.i2" class="" fill="#ffffff"></path></svg>